<svg width="49" height="49" viewBox="0 0 49 49" fill="none" xmlns="http://www.w3.org/2000/svg">
<path fill-rule="evenodd" clip-rule="evenodd" d="M10.2673 27.9109L10.2673 46.4723C10.2673 47.391 9.55303 48.1374 8.57094 48.1374L1.60704 48.1374C0.714233 48.1374 -1.13788e-05 47.391 -1.12985e-05 46.4723L-7.38127e-06 1.66417C-7.30095e-06 0.745472 0.714238 1.11142e-05 1.60704 1.11923e-05L8.57095 1.18011e-05C9.55303 1.1887e-05 10.2673 0.745472 10.2673 1.66417L10.2673 20.2257L44.194 0.629425C44.9975 0.167843 45.9796 0.167843 46.7831 0.629425C47.5866 1.09101 48.1223 1.9436 48.1223 2.86676C48.1223 12.5876 48.1223 35.5488 48.1223 45.2706C48.1223 46.1929 47.5866 47.0455 46.7831 47.5071C45.9796 47.9687 44.9975 47.9687 44.194 47.508L10.2673 27.9109Z" fill="white"/>
</svg>
