<svg width="49" height="49" viewBox="0 0 49 49" fill="none" xmlns="http://www.w3.org/2000/svg">
<path fill-rule="evenodd" clip-rule="evenodd" d="M37.855 20.2265V1.66512C37.855 0.746421 38.5693 0 39.5514 0H46.5153C47.4081 0 48.1223 0.746421 48.1223 1.66512V46.4733C48.1223 47.392 47.4081 48.1374 46.5153 48.1374H39.5514C38.5693 48.1374 37.855 47.392 37.855 46.4733V27.9118L3.92835 47.508C3.12483 47.9696 2.14274 47.9696 1.33921 47.508C0.535685 47.0464 0 46.1939 0 45.2707C0 35.5498 0 12.5886 0 2.86683C0 1.94456 0.535685 1.09195 1.33921 0.63037C2.14274 0.168789 3.12483 0.168723 3.92835 0.629411L37.855 20.2265Z" fill="white"/>
</svg>
