<svg width="58" height="53" viewBox="0 0 58 53" fill="none" xmlns="http://www.w3.org/2000/svg">
<path fill-rule="evenodd" clip-rule="evenodd" d="M4.40439 27.4404C4.40439 27.4404 19.6726 44.8625 24.8257 50.7053C25.6845 51.7742 27.1159 52.3912 28.5473 52.3912C30.0741 52.3912 31.4101 51.7742 32.3644 50.7053C36.2768 46.2309 46.3921 34.7922 52.7856 27.4404C56.9844 22.6294 58.3204 16.0616 56.1256 10.1454C54.5987 6.05848 51.3542 2.77823 47.1555 1.13402C42.9567 -0.510188 38.1854 -0.360465 34.082 1.54417L28.5473 4.10487L23.108 1.54417C19.0046 -0.360465 14.2333 -0.510188 10.0346 1.13402C5.83579 2.77823 2.59129 6.05848 1.06447 10.1454C-1.13034 16.0616 0.110201 22.6294 4.40439 27.4404ZM29.0244 46.2472C28.929 46.3752 28.7381 46.4495 28.5473 46.4495C28.4519 46.4495 28.261 46.3752 28.1656 46.2472C25.1119 42.8662 8.60316 24.0468 8.60316 24.0468C5.64494 20.6658 4.7861 16.0499 6.31292 11.8913C7.26719 9.23349 9.36657 7.10016 12.1339 6.03034C14.9013 4.96142 17.955 5.05853 20.6269 6.29804C24.3485 8.01938 27.4022 9.42857 27.4022 9.42857C28.1656 9.7879 29.0244 9.7879 29.7878 9.42857L36.5631 6.29804C39.1396 5.05853 42.2887 4.96142 45.0561 6.03034C47.728 7.10016 49.9228 9.23349 50.8771 11.8913C52.4039 16.0499 51.5451 20.6658 48.4914 24.0468C48.4914 24.0468 31.9827 42.8662 29.0244 46.2472Z" fill="white"/>
</svg>
