<svg width="57" height="52" viewBox="0 0 57 52" fill="none" xmlns="http://www.w3.org/2000/svg">
<path fill-rule="evenodd" clip-rule="evenodd" d="M31.6436 38.7823L34.7263 35.8423C35.8142 34.8078 35.8142 33.1383 34.7263 32.1039C33.648 31.0694 31.8823 31.0694 30.7944 32.1039L21.1847 41.2413L30.7944 50.3789C31.8823 51.4043 33.648 51.4043 34.7263 50.3789C35.8142 49.3445 35.8142 47.6657 34.7263 46.6313L31.6436 43.7005H42.9419C50.2611 43.7005 56.2062 38.0382 56.2062 31.0784V12.6128C56.2062 5.6531 50.2611 0 42.9419 0H13.274C5.94522 0 0 5.6531 0 12.6128V31.0784C0 38.0382 5.94522 43.7005 13.274 43.7005H15.9079V38.7823H13.274C8.79847 38.7823 5.17241 35.325 5.17241 31.0784V12.6128C5.17241 8.36622 8.79847 4.90917 13.274 4.90917H42.9419C47.4079 4.90917 51.0442 8.36622 51.0442 12.6128V31.0784C51.0442 35.325 47.4079 38.7823 42.9419 38.7823H31.6436Z" fill="white"/>
</svg>
