<svg width="59" height="49" viewBox="0 0 59 49" fill="none" xmlns="http://www.w3.org/2000/svg">
<path fill-rule="evenodd" clip-rule="evenodd" d="M47.0453 41.2934C47.1502 41.2934 47.2457 41.348 47.2838 41.4478C47.3315 41.5385 47.3035 41.6474 47.2272 41.72C46.4351 42.4731 44.8505 43.9795 44.8505 43.9795C43.7626 45.0139 43.7626 46.6925 44.8505 47.7269C45.9383 48.7613 47.6945 48.7613 48.7823 47.7269C48.7823 47.7269 56.0058 40.8671 57.9239 39.0341C58.0479 38.9162 58.1147 38.7528 58.1147 38.5895C58.1147 38.4261 58.0479 38.2628 57.9239 38.1448C56.0058 36.3119 48.7823 29.4519 48.7823 29.4519C47.6945 28.4174 45.9383 28.4174 44.8505 29.4519C43.7626 30.4863 43.7626 32.1651 44.8505 33.1995C44.8505 33.1995 46.5206 34.7874 47.3412 35.5678C47.4176 35.6404 47.4464 35.7492 47.3986 35.84C47.3605 35.9398 47.265 35.9944 47.1601 35.9944C45.7096 35.9944 42.3127 35.9851 42.3127 35.9851C41.034 35.9851 39.7547 35.3953 38.4092 34.5333C36.701 33.4263 34.974 31.8657 33.2181 30.0509C33.2181 30.0509 32.1877 28.9892 31.6533 28.4356C31.5674 28.3449 31.4529 28.2905 31.3193 28.2905C31.1952 28.2814 31.0712 28.3267 30.9853 28.4084C30.2123 29.0889 28.3609 30.7041 27.5879 31.3847C27.4925 31.4664 27.4351 31.5753 27.4351 31.6932C27.4256 31.8112 27.4737 31.9291 27.5596 32.0199C28.094 32.5734 29.1245 33.6351 29.1245 33.6351C33.6 38.2538 38.1615 41.2753 42.303 41.2753C42.303 41.2753 45.6234 41.2843 47.0453 41.2934ZM47.2272 6.78515C47.3035 6.85774 47.3315 6.95755 47.2838 7.05737C47.2457 7.14811 47.1502 7.21155 47.0453 7.21155C45.6234 7.21155 42.303 7.22059 42.303 7.22059C39.3925 7.22059 36.2913 8.62717 33.1995 11.0953C29.3156 14.1986 25.288 19.035 21.2801 23.8896C17.5203 28.4266 13.7897 32.9907 10.154 35.8944C8.2359 37.4279 6.43175 38.5351 4.62819 38.5351C4.62819 38.5351 1.65088 38.5351 0.477132 38.5351C0.209938 38.5351 0 38.7346 0 38.9796C0 39.9868 0 42.3733 0 43.3714C0 43.4984 0.0483097 43.6073 0.134194 43.698C0.22962 43.7797 0.343535 43.8251 0.477132 43.8251C1.26917 43.8251 2.78675 43.8251 2.78675 43.8251H4.62819C7.54824 43.8251 10.6407 42.4278 13.7325 39.9506C17.6163 36.8473 21.6433 32.0108 25.6608 27.1563C29.411 22.6193 33.1512 18.055 36.7869 15.1513C38.705 13.6178 40.4995 12.5108 42.303 12.5108H42.3127C42.3127 12.5108 45.7096 12.5018 47.1601 12.5018C47.265 12.5018 47.3605 12.5652 47.3986 12.6559C47.4464 12.7467 47.4176 12.8556 47.3412 12.9282C46.5206 13.7176 44.8505 15.3057 44.8505 15.3057C43.7626 16.3401 43.7626 18.0096 44.8505 19.0441C45.9383 20.0785 47.6945 20.0785 48.7823 19.0441C48.7823 19.0441 56.0058 12.1841 57.9239 10.3511C58.0479 10.2332 58.1147 10.079 58.1147 9.90663C58.1147 9.7433 58.0479 9.57994 57.9239 9.46197C56.0058 7.6381 48.7823 0.769021 48.7823 0.769021C47.6945 -0.25634 45.9383 -0.25634 44.8505 0.769021C43.7626 1.80346 43.7626 3.48221 44.8505 4.51665C44.8505 4.51665 46.4351 6.02293 47.2272 6.78515ZM2.78675 9.97008H4.62819C6.23135 9.97008 7.83496 10.8593 9.52401 12.1205C11.6616 13.7085 13.8279 15.9227 16.0227 18.3908C16.0227 18.3908 16.9955 19.4888 17.5108 20.0695C17.5871 20.1602 17.7118 20.2146 17.8358 20.2237C17.9599 20.2418 18.0833 20.1965 18.1787 20.1239C18.9803 19.4797 20.8984 17.937 21.7095 17.2927C21.805 17.2111 21.8625 17.1023 21.8721 16.9843C21.8816 16.8664 21.8433 16.7483 21.7669 16.6575C21.2516 16.0768 20.2692 14.9789 20.2692 14.9789C17.2823 11.6124 14.3047 8.69969 11.4229 6.89396C9.12307 5.4512 6.83254 4.67084 4.62819 4.67084H0V9.97008H2.78675Z" fill="white"/>
</svg>
