<svg width="59" height="49" viewBox="0 0 59 49" fill="none" xmlns="http://www.w3.org/2000/svg">
<path fill-rule="evenodd" clip-rule="evenodd" d="M9.7335 48.5641H14.4094V43.6459H7.15699V48.5641H9.7335ZM58.401 5.9798C58.401 2.67686 55.6336 0 52.1029 0H28.0554C24.5246 0 21.7572 2.67686 21.7572 5.9798V42.5389C21.7572 45.8419 24.5246 48.5187 28.0554 48.5187H52.1029C55.6336 48.5187 58.401 45.8419 58.401 42.5389V5.9798ZM53.248 5.9798V42.5389C53.248 43.1287 52.7709 43.6096 52.1029 43.6096H28.0554C27.3874 43.6096 26.9103 43.1287 26.9103 42.5389V5.9798C26.9103 5.38999 27.3874 4.90899 28.0554 4.90899H52.1029C52.7709 4.90899 53.248 5.38999 53.248 5.9798ZM40.0791 24.3456C44.1825 24.3456 47.427 27.4851 47.427 31.3597C47.427 35.2343 44.1825 38.383 40.0791 38.383C35.9758 38.383 32.7313 35.2343 32.7313 31.3597C32.7313 27.4851 35.9758 24.3456 40.0791 24.3456ZM11.8329 0H6.29815C2.76737 0 0 2.65872 0 5.93443V28.5467C0 31.8225 2.76737 34.4812 6.29815 34.4812H14.4094V29.5722H6.29815C5.63016 29.5722 5.15303 29.1093 5.15303 28.5467V5.93443C5.15303 5.37184 5.63016 4.90899 6.29815 4.90899H14.4094V0H11.8329ZM40.0791 10.2082C42.0831 10.2082 43.8008 11.778 43.8008 13.7108C43.8008 15.6526 42.0831 17.2225 40.0791 17.2225C38.0752 17.2225 36.3575 15.6526 36.3575 13.7108C36.3575 11.778 38.0752 10.2082 40.0791 10.2082Z" fill="white"/>
</svg>
