<svg width="51" height="46" viewBox="0 0 51 46" fill="none" xmlns="http://www.w3.org/2000/svg">
<path fill-rule="evenodd" clip-rule="evenodd" d="M48.095 41.0054C48.095 40.8239 47.9421 40.6878 47.7513 40.6878C43.7911 40.6878 6.28846 40.6878 2.32826 40.6878C2.14695 40.6878 1.99426 40.8239 1.99426 41.0054C1.99426 41.9491 1.99426 44.7077 1.99426 45.6604C1.99426 45.8328 2.14695 45.978 2.32826 45.978C6.28846 45.978 43.7911 45.978 47.7513 45.978C47.9421 45.978 48.095 45.8328 48.095 45.6604V41.0054ZM48.095 26.6141C48.095 26.4417 47.9421 26.2965 47.7513 26.2965C43.7911 26.2965 6.28846 26.2965 2.32826 26.2965C2.14695 26.2965 1.99426 26.4417 1.99426 26.6141C1.99426 27.5669 1.99426 30.3254 1.99426 31.2691C1.99426 31.4415 2.14695 31.5867 2.32826 31.5867C6.28846 31.5867 43.7911 31.5867 47.7513 31.5867C47.9421 31.5867 48.095 31.4415 48.095 31.2691V26.6141ZM0 8.31192C0 3.72048 3.91249 0 8.73152 0H41.3957C46.2148 0 50.175 3.72048 50.175 8.31192C50.175 12.8943 46.2148 16.6146 41.3957 16.6146H8.73152C3.91249 16.6146 0 12.8943 0 8.31192ZM5.56307 8.31192C5.56307 6.6423 6.98522 5.29925 8.73152 5.29925H41.3957C43.142 5.29925 44.5642 6.6423 44.5642 8.31192C44.5642 9.97246 43.142 11.3244 41.3957 11.3244H8.73152C6.98522 11.3244 5.56307 9.97246 5.56307 8.31192Z" fill="white"/>
</svg>
